<mxfile host="app.diagrams.net" modified="2023-09-14T04:32:28.155Z" agent="Mozilla/5.0 (Windows NT 10.0; Win64; x64) AppleWebKit/537.36 (KHTML, like Gecko) Chrome/116.0.0.0 Safari/537.36" version="21.7.1" etag="Ay4-tSnckN0uhk52iDG6" type="github">
  <diagram name="Page-1" id="8CFmcTsMimxULnh5dxZK">
    <mxGraphModel>
      <root>
        <mxCell id="0" />
        <mxCell id="1" parent="0" />
      </root>
    </mxGraphModel>
  </diagram>
</mxfile>
